<svg id="icon" xmlns="http://www.w3.org/2000/svg" viewBox="0 0 200 200"><title>airship</title><path d="M172.49,90.66c-.35-7.9-12.12-15.56-18.15-18.07-10.19-4.23-21.1-5.5-32.38-5.52C97,67,72.47,70.72,49.78,79c-4.29,1.57-8.67,3.67-13,5.18-2.13.74-8.11,2.92-9.09,5.57-2.38,6.46,17.84,11.69,21.16,13.12a60.37,60.37,0,0,0,6.26,2.53c2.3.75,4.41,1.6,6.83,2.32a152,152,0,0,0,15.28,4c12.09,2.25,25.4,4.16,38.1,4.23,7.6,0,14.24-1.71,21.55-2,6.87-.3,12.3-3,18.31-5.37C161.69,106.08,172.86,98.86,172.49,90.66Z"/><path d="M128.9,127.87c-7.07-2.55-18.28-.55-25.75-.51-4.45,0-6.3-1-6.41,3.85-.06,2.33,1.62,6,3.17,7.21,4.16,3.27,15.75,2.38,20.8,1.58,3.77-.6,5.4-1.7,7.3-4.94C128.72,133.86,130.86,128.58,128.9,127.87Z"/><path d="M60.17,121c-2-.94-4.57-1.58-6.59-2.43-2.91-1.24-4.77-1.74-7.79-3-7.49-3-9.91-3.33-9.55,5.13s7,6.21,14.1,6.3c3.09,0,4.49.08,7-1.44C58.09,125.15,63,122.33,60.17,121Z"/><path d="M44.18,68.38c3-1.09,4.81-1.57,7.67-2.67,2-.76,4.51-1.39,6.48-2.22,2.75-1.15-2.25-3.06-3-3.38-2.55-1-3.95-.93-7-.73-7.09.44-13.8-1-13.82,5.57S36.83,71.1,44.18,68.38Z"/></svg>