<svg id="icon" xmlns="http://www.w3.org/2000/svg" viewBox="0 0 200 200"><title>flex_wing_trikes</title><path d="M159.91,117.66,104.49,95a17.52,17.52,0,0,0-9,0l-55.42,22.7-9.4,9.66a2.38,2.38,0,0,0,2.33,4L94.71,106a20,20,0,0,1,10.58,0L167,131.28a2.38,2.38,0,0,0,2.33-4Z"/><path d="M94,90.16a22.5,22.5,0,0,1,11.91,0l.29.09,44.89,18.39L137.7,94.85,105.09,61.34a7.09,7.09,0,0,0-10.18,0L62.3,94.85,48.87,108.64l45-18.44Z"/><path d="M88.21,131.76l-.16-.13c-4.42-3.59-12.46-4.48-18.57-2.06l-9.31,3.71c-1.45.57-1.45,1.89,0,2.47l9.31,3.7c6.11,2.42,14.15,1.53,18.57-2l.16-.14A3.27,3.27,0,0,0,88.21,131.76Z"/><circle cx="100" cy="133.25" r="6.3"/><path d="M139.83,133.28l-9.31-3.71c-6.11-2.42-14.15-1.53-18.57,2.06l-.16.13a3.27,3.27,0,0,0,0,5.5l.16.14c4.42,3.58,12.46,4.47,18.57,2l9.31-3.7C141.28,135.17,141.28,133.85,139.83,133.28Z"/></svg>