<svg id="icon" xmlns="http://www.w3.org/2000/svg" viewBox="0 0 200 200"><title>glider</title><path d="M103.32,58.47a24.73,24.73,0,0,0-2-7.2c-.88-1.72-1.94-1.68-2.71,0a21.77,21.77,0,0,0-1.43,4.47c-2.47,12.16-2.75,24.48-2.43,36.83.46,17.52,1.09,35,3.52,52.42a10.3,10.3,0,0,0,1.55,5c1.33-1.91,1.42-2.11,1.84-5,2.18-14.89,2.77-29.91,3.34-44.92C105.52,86.17,105.64,72.27,103.32,58.47Zm-3.42,86c-.75-.07-.62-.79-.62-1.29,0-2,0-4.06,0-6.09h0c0-2,0-4.05,0-6.08,0-.51-.08-1.21.74-1.19.61,0,.61.61.61,1q0,6.22,0,12.44C100.66,143.8,100.71,144.53,99.9,144.46Zm2.1-64c-1.27,1.65-2.89,1.68-4.08,0s-1.45-3.77-1.44-6.57A9.12,9.12,0,0,1,97.8,69c1.24-2,2.86-2,4.2-.2C104,71.43,104,77.85,102,80.42Z"/><path d="M157.76,88.56c-9.46-1.48-19-1.37-31-1.74-4.13,0-10.72.11-17.29-.06-2.19-.06-2.66.67-2.6,2.64a74.73,74.73,0,0,1-.2,8.33c-.13,1.73.35,2.2,2.1,2.15,6.39-.2,12.78-.61,19.13-1.31,10.22-1.12,20.44-2.38,30.2-5.85,1.35-.48,3.47-.83,3.35-2.42S159.16,88.78,157.76,88.56Z"/><path d="M93.27,98.28c-.16-3-.32-6.12-.22-9.17,0-1.81-.42-2.36-2.29-2.33-6.76.12-13.53,0-20.3,0-9.08.25-18.18.25-27.2,1.52-1.73.25-4.54,0-4.69,2s2.6,2.26,4.3,2.78C58.79,98,75.22,99.2,91.74,99.86,93,99.91,93.32,99.49,93.27,98.28Z"/><path d="M115.17,138.75a31.41,31.41,0,0,0-7.33-1.24c-3.63-.32-3.63-.32-4,3.42a5.69,5.69,0,0,1-.07.83c-.24,1.15.28,1.46,1.35,1.37a47.1,47.1,0,0,0,10.09-1.55c.78-.24,1.83-.52,1.8-1.45S116,139,115.17,138.75Z"/><path d="M94.3,137.34a33.93,33.93,0,0,0-9.53,1.41c-.77.26-1.9.48-1.88,1.38s1.17,1.23,2,1.52c2.93.95,6,1.07,8.83,1.43,2.49.14,2.63.11,2.17-2.4C95.73,139.49,96.74,137.24,94.3,137.34Z"/></svg>