<svg id="icon" xmlns="http://www.w3.org/2000/svg" viewBox="0 0 200 200"><title>gyrocopter-anim_1</title><path d="M96.17,99.91v.18a2.27,2.27,0,0,1-1.82,2.47L29,105.89c-1.07.06-2-1.06-2-2.46V96.57c0-1.4.89-2.52,2-2.46l65.39,3.33A2.27,2.27,0,0,1,96.17,99.91Z"/><path d="M103.83,100.09v-.18a2.27,2.27,0,0,1,1.82-2.47L171,94.11c1.07-.06,2,1.06,2,2.46v6.86c0,1.4-.89,2.52-2,2.46l-65.39-3.33A2.27,2.27,0,0,1,103.83,100.09Z"/><path d="M88.68,54.93a29.29,29.29,0,0,0-.84,7c0,10.61,5.46,19.24,12.16,19.24S112.16,72.56,112.16,62a29.29,29.29,0,0,0-.84-7,17.23,17.23,0,0,0-22.64,0Z"/><path d="M114.43,134.34H102.94V112.4a3.44,3.44,0,0,1,2.36-3.26c9.56-3.2,16.65-14.87,16.65-28.79a35.52,35.52,0,0,0-6.27-20.74q.09,1.16.09,2.34a29,29,0,0,1-4.39,15.88c-3,4.49-7,7-11.38,7s-8.39-2.48-11.38-7A29,29,0,0,1,84.23,62q0-1.19.09-2.34a35.52,35.52,0,0,0-6.27,20.74c0,13.92,7.09,25.59,16.65,28.79a3.44,3.44,0,0,1,2.36,3.26v21.94H85.57a7.52,7.52,0,0,0-7.52,7.52v5.81a1.64,1.64,0,0,0,1.64,1.64h40.62a1.64,1.64,0,0,0,1.64-1.64v-5.81A7.52,7.52,0,0,0,114.43,134.34Z"/></svg>