<?xml version="1.0" encoding="utf-8"?>
<!-- Generator: Adobe Illustrator 28.0.0, SVG Export Plug-In . SVG Version: 6.00 Build 0)  -->
<svg version="1.1" id="icon" xmlns="http://www.w3.org/2000/svg" xmlns:xlink="http://www.w3.org/1999/xlink" x="0px" y="0px"
	 viewBox="0 0 200 200" style="enable-background:new 0 0 200 200;" xml:space="preserve">
<path d="M95.1,102.6l0.1,0.1c0.9,0.7,1.1,2,0.5,3l-43.9,48.6c-0.7,0.8-2.1,0.6-3.1-0.4l-4.8-4.8c-1-1-1.2-2.4-0.4-3.1L92,102.2
	C93,101.5,94.3,101.7,95.1,102.6z"/>
<path d="M100.6,97.4l-0.1-0.1c-0.9-0.7-1.1-2-0.5-3l43.9-48.6c0.7-0.8,2.1-0.6,3.1,0.4l4.9,4.8c1,1,1.1,2.4,0.4,3.1l-48.6,43.9
	C102.7,98.5,101.4,98.3,100.6,97.4z"/>
<path d="M88.8,54.9C88.3,57.2,88,59.6,88,62c0,10.6,5.5,19.2,12.2,19.2s12.1-8.7,12.1-19.2c0-2.4-0.3-4.7-0.8-7
	C105,49.3,95.3,49.3,88.8,54.9L88.8,54.9z"/>
<path d="M114.6,134.3h-11.5v-21.9c0-1.5,1-2.8,2.4-3.3c9.6-3.2,16.7-14.9,16.7-28.8c0.1-7.4-2.1-14.6-6.3-20.7
	c0,0.8,0.1,1.5,0.1,2.3c0.1,5.6-1.4,11.1-4.4,15.9c-3,4.5-7,7-11.4,7s-8.4-2.5-11.4-7c-3-4.7-4.5-10.2-4.4-15.8c0-0.8,0-1.6,0.1-2.3
	c-4.2,6.1-6.4,13.3-6.3,20.7c0,13.9,7.1,25.6,16.7,28.8c1.4,0.5,2.4,1.8,2.4,3.3v21.9H85.7c-4.2,0-7.5,3.4-7.5,7.5v5.8
	c0,0.9,0.7,1.6,1.6,1.6h40.6c0.9,0,1.6-0.7,1.6-1.6v-5.8C122.1,137.7,118.7,134.3,114.6,134.3L114.6,134.3z"/>
<path d="M97.4,102.6l0.1,0.1c0.9,0.7,1.1,2,0.5,3l-43.9,48.6c-0.7,0.8-2.1,0.6-3.1-0.4l-4.8-4.8c-1-1-1.2-2.4-0.4-3.1l48.6-43.9
	C95.3,101.5,96.6,101.7,97.4,102.6z"/>
<path d="M102.9,97.4l-0.1-0.1c-0.9-0.7-1.1-2-0.5-3l43.9-48.6c0.7-0.8,2.1-0.6,3.1,0.4l4.8,4.8c1,1,1.2,2.4,0.4,3.1L106,97.8
	C105,98.5,103.7,98.3,102.9,97.4z"/>
</svg>
