<?xml version="1.0" encoding="utf-8"?>
<!-- Generator: Adobe Illustrator 22.0.0, SVG Export Plug-In . SVG Version: 6.00 Build 0)  -->
<svg version="1.1" id="Calque_1" xmlns="http://www.w3.org/2000/svg" xmlns:xlink="http://www.w3.org/1999/xlink" x="0px" y="0px"
	 viewBox="0 0 150 150" style="enable-background:new 0 0 150 150;" xml:space="preserve">
<title>aircrafts-icons</title>
<g>
	<g>
		<path d="M72.4,72.2l-0.1,0.1c-0.9,0.9-2.3,1.1-3,0.5L20.6,28.9c-0.8-0.7-0.6-2.1,0.4-3.1l4.8-4.8c1-1,2.4-1.2,3.1-0.4l43.9,48.6
			C73.5,70,73.3,71.3,72.4,72.2z"/>
		<path d="M77.6,77.8l0.1-0.1c0.9-0.9,2.3-1.1,3-0.5l48.6,43.9c0.8,0.7,0.6,2.1-0.4,3.1l-4.8,4.8c-1,1-2.4,1.2-3.1,0.4L77.2,80.8
			C76.5,80,76.7,78.7,77.6,77.8z"/>
	</g>
	<g>
		<path d="M63.7,29.9c-0.5,2.2-0.8,4.5-0.8,7c0,10.6,5.5,19.2,12.2,19.2S87.2,47.6,87.2,37c0-2.5-0.3-4.8-0.8-7
			c-3.3-2.7-7.2-4.2-11.3-4.2C70.9,25.7,67,27.2,63.7,29.9z"/>
		<path d="M89.4,109.3H77.9V87.4c0-1.5,1-2.8,2.4-3.3C89.9,80.9,97,69.3,97,55.4c0-8.1-2.4-15.4-6.3-20.7c0.1,0.8,0.1,1.6,0.1,2.3
			c0,6-1.6,11.6-4.4,15.9c-3,4.5-7,7-11.4,7c-4.4,0-8.4-2.5-11.4-7c-2.8-4.3-4.4-9.9-4.4-15.9c0-0.8,0-1.6,0.1-2.3
			C55.4,40,53,47.3,53,55.4c0,13.9,7.1,25.6,16.7,28.8c1.4,0.5,2.4,1.8,2.4,3.3v21.9H60.6c-4.2,0-7.5,3.4-7.5,7.5v5.8
			c0,0.9,0.7,1.6,1.6,1.6h40.6c0.9,0,1.6-0.7,1.6-1.6v-5.8C97,112.7,93.6,109.3,89.4,109.3z"/>
	</g>
</g>
</svg>
