<svg id="icon" xmlns="http://www.w3.org/2000/svg" viewBox="0 0 200 200"><title>heavy_aircraft</title><path d="M106.21,60.28c0-5.36-.17-10.67-2.15-15.75-.8-2-1.63-4.58-4.15-4.53s-3.33,2.57-4.12,4.62a33.21,33.21,0,0,0-2.05,12.05c0,11.92,0,23.84,0,37.5.07,10.55-.31,22.86.6,35.14.65,8.75,1.26,17.51,3.25,26.08.41,1.75.42,4.66,2.42,4.61s1.9-3,2.34-4.73c2.82-11.59,3.22-23.49,3.55-35.28C106.45,100.1,106.11,80.19,106.21,60.28Zm-2,6c-.88,0-1-.59-1-1.16s-.09-1.46.86-1.5c.58,0,.69.54.72,1C104.85,65.28,104.91,66,104.2,66.27Zm-7.53-1.35c0,.74,0,1.45-.84,1.33-.67-.09-.8-.74-.82-1.33s.19-1.26.84-1.3C97,63.55,96.41,64.58,96.67,64.92Zm-.77,9.46c-.89,0-.86-.88-.85-1.53s.19-1.22.94-1.14.59.84.68,1.36S96.64,74.4,95.9,74.38Zm.76,35.2c-.07.54.09,1.29-.73,1.3s-.91-.62-.89-1.22,0-1.49.95-1.44S96.58,109.05,96.66,109.58Zm-.89,9.4c-.62-.08-.78-.72-.76-1.31s.12-1.4,1-1.34.58.8.68,1.23C96.59,118.25,96.75,119.1,95.77,119Zm4.51,38.75H99.7V129.51h.58ZM96.94,54.16a1.22,1.22,0,0,1-1.23.47c-.67-.17-.43-.71-.37-1.15s.17-.93.29-1.39c1-3.48,2.84-5.53,4.78-5.21s4.15,3.73,4.26,6.55c0,.44.27,1-.38,1.18s-.84-.1-1.21-.48C100,51,100,51,96.94,54.16Zm7.87,63.66c0,.53,0,1.13-.74,1.23-.92-.18-.82-.92-.86-1.53s.13-1.21.84-1.17C105,116.4,104.84,117.19,104.81,117.82Zm-.7-6.95c-.82.12-.86-.64-.85-1.17s-.14-1.52.83-1.51c.74,0,.64.79.75,1.33S104.81,110.77,104.11,110.87Zm0-36.48c-.92,0-.86-.78-.86-1.41s0-1.24.7-1.28c1-.07.69.84.89,1.2C104.73,73.6,104.85,74.36,104.13,74.39Z"/><path d="M147.77,115.22c-3.33-2.57-6.79-5.09-9.47-8.44-1-.17-1.73-.51-1.69-1.67-4.39-2.45-7.79-6.09-11.43-9.45-.41-.31-1.14-.67-.45-1.19s.91.23,1.13.74c1-1,1.25-5.2.18-5.58s-2.46-.72-2.69,1.32c-.11,1,1,1.65.18,3L108.86,77.13c0,9.83,0,18.93,0,28,0,1.47.51,2,1.92,2.15,8.19.76,15.65,3.58,22.8,7.59,5.52,3.1,11.3,5.74,17,8.63C151.55,119.91,150.65,117.45,147.77,115.22Z"/><path d="M91,104.65q0-12.44,0-24.89c0-.7.41-1.53-.41-2.12L75.78,94.8c-.59-2,1.17-2.45.87-3.71-.18-.74-.05-1.63-1.15-1.62-.7,0-1.74-.37-1.92.67-.25,1.49-.92,3.76-.21,4.42,2.16,2,.06,2.53-.83,3.37a56.23,56.23,0,0,1-5,4.26c-1.35,1-2.26,2.68-4.15,2.93,0,1.15-.72,1.5-1.68,1.66-2.67,3.36-6.15,5.87-9.48,8.47-2.84,2.22-3.83,4.65-2.78,8.25,4.46-2.23,8.91-4.35,13.26-6.65,8.43-4.47,16.82-9,26.64-9.56C91.33,107.18,91,105.85,91,104.65Z"/><path d="M124.23,152.49c-5.72-5.49-11.57-10.83-17-15.87,0,2.89,0,6.77,0,10.64a2,2,0,0,0,1.2,2c5.36,2.8,10.69,5.65,16.57,8.77C124.47,155.86,125.69,153.89,124.23,152.49Z"/><path d="M92.64,136.66c-4.92,4.53-10.13,9.5-15.57,14.22-2.3,2-2.28,4.19-1.87,7,5.56-2.95,10.82-5.78,16.13-8.51a2.34,2.34,0,0,0,1.33-2.52C92.62,143.14,92.64,139.43,92.64,136.66Z"/><path d="M63.35,105.07c-.54-.69.33-1.33.08-2.06s-.07-1.35-1-1.41c-.65,0-1.5-.3-1.88.26-.76,1.15-.43,2.56-.55,3.87s1.3.28,1.66.89C61.45,105.33,62.26,105.06,63.35,105.07Z"/><path d="M63.39,105.09v0h0s0,0,0-.05h0a.13.13,0,0,0,0,.05Z"/><path d="M61.65,106.62a1.22,1.22,0,0,0,0,.17h0A.52.52,0,0,0,61.65,106.62Z"/><path d="M138.34,106.76c2.43-.32,1.59-2.15,1.58-3.57s-.75-1.84-2-1.62c-2.53.42-.61,2.4-1.23,3.5C137.82,105,138.62,105.35,138.34,106.76Z"/><path d="M138.31,106.78h0v0h0Z"/><path d="M136.65,105.07h0s0,0,0,0h0S136.65,105.09,136.65,105.07Z"/></svg>