<svg id="icon" xmlns="http://www.w3.org/2000/svg" viewBox="0 0 200 200"><title>helicopter-anim_2</title><path d="M88.67,86.05c0,2.4.14,4.8.18,7.21l.91,1.31,2.23.21.19-.16c.21.64.33,1.06.48,1.47a78.07,78.07,0,0,0,3.11,7.82,7.91,7.91,0,0,1,1.17,3.49c.06,2.4.21,4.8.34,7.2q.36,6.57.73,13.14l-.12,4.63a1.42,1.42,0,0,1-1,.23c-1.42,0-2.84.07-4.25,0s-1.72.74-1.71,2c0,2.13.13,2.4,1.62,2.44s3,0,4.53,0c1.09,0,1.49.44,1.51,1.52,0,2.21.14,4.43.26,6.64s.14,2.34,2.43,2.33c1.09,0,1.4.44,1.37,1.43,0,1.65,0,3.31.06,5,0,.4.59.75.91,1.13.31-.39.89-.77.89-1.16q.09-7.35,0-14.71c0-.43-.61-.86-.93-1.29-.3.45-.82.88-.85,1.35-.11,1.69,0,3.4-.1,5.09,0,.39-.5.75-.77,1.12-.24-.36-.67-.73-.68-1.09,0-2,.13-4,.16-5.93,0-.95.39-1.38,1.36-1.37,1.6,0,3.21,0,4.81,0,1,0,1.52-.4,1.47-1.45,0-.51,0-1,0-1.55a1.25,1.25,0,0,0-1.41-1.39c-1.37,0-2.74-.07-4.1,0a2.41,2.41,0,0,1-1.15-.14l-.17-8.57c.31-5.84.6-11.68.92-17.51a4.32,4.32,0,0,1,.47-2.18A23.75,23.75,0,0,0,106.87,96c.28-1.11.63-1.46,1.25-1.09l2.72-.27.49-1.47a4.36,4.36,0,0,1,0-1.09,45.85,45.85,0,0,0,.18-6.1h2.15l35.49.95s2.37-.35,2.37-2.19-2.34-2.33-2.34-2.33l-37.76.78,0-.72a3.69,3.69,0,0,0-1.31-2.29c-.92-.76-1.29-1.5-1-2.28l.1-4.43,0,0c-.09-.91-.16-1.44-.19-2A82.82,82.82,0,0,0,106.83,55a21.39,21.39,0,0,0-3.56-8.22,4.78,4.78,0,0,0-1.17-1.09l.25-10.15s-.38-2.23-2.23-2.23-2.15,2-2.15,2l.22,10.17a4.69,4.69,0,0,0-1.17,1,13.74,13.74,0,0,0-2.09,3.32A50.84,50.84,0,0,0,91.4,66.64c-.14,2.18-.3,4.36-.47,6.86l-.07,0v4.22c.41.87,0,1.69-1,2.54a3.4,3.4,0,0,0-1.23,2.21v.91h-2l-35.75-.87s-2.24.38-2.24,2.23,2,2.14,2,2.14l36.53-.78Z"/></svg>