<svg id="icon" xmlns="http://www.w3.org/2000/svg" viewBox="0 0 200 200"><title>helicopter-anim_3</title><path d="M55.61,105.62,88.8,91.06c0,.73,0,1.46,0,2.2l.91,1.31,2.23.21.18-.16c.21.64.33,1.06.49,1.47a75.75,75.75,0,0,0,3.11,7.82,7.91,7.91,0,0,1,1.17,3.49c.06,2.4.21,4.8.34,7.2.3,5.55.6,11.11.93,16.66.06,1-.31,1.37-1.28,1.34-1.41,0-2.83.07-4.24,0s-1.72.74-1.71,2c0,2.13.13,2.4,1.62,2.44s3,0,4.53,0c1.09,0,1.49.44,1.51,1.52,0,2.21.14,4.43.26,6.64s.14,2.34,2.43,2.33c1.09,0,1.39.44,1.37,1.43,0,1.65-.06,3.31.06,5,0,.4.59.75.91,1.13.31-.39.89-.77.89-1.16q.09-7.35,0-14.71c0-.43-.61-.86-.93-1.29-.3.45-.82.88-.85,1.35-.11,1.69,0,3.4-.1,5.09,0,.39-.5.75-.77,1.12-.24-.36-.68-.73-.68-1.09,0-2,.13-4,.16-5.94,0-.94.39-1.37,1.36-1.36,1.6,0,3.2,0,4.81,0,1,0,1.52-.4,1.47-1.45,0-.51,0-1,0-1.55a1.24,1.24,0,0,0-1.4-1.39c-1.37,0-2.74-.07-4.11,0s-1.77-.29-1.7-1.66c.47-8.19.86-16.38,1.31-24.56a4.32,4.32,0,0,1,.47-2.18,17.15,17.15,0,0,0,1.76-3.26l11.47,29.94s1.23,2,2.93,1.35S121,129.2,121,129.2L106.71,96.66c.05-.21.11-.42.16-.63.28-1.11.63-1.46,1.25-1.09l2.72-.27.48-1.47a5,5,0,0,1,0-1.09,64.19,64.19,0,0,0,.06-9.61,2.49,2.49,0,0,0-.24-.84l1.85-.78L146.36,68s1.92-1.2,1.21-2.91a2.31,2.31,0,0,0-2.7-1.21l-33.45,14.7-2.08.87a1.65,1.65,0,0,1-.3-1.53l.11-4.43,0,0c-.09-.91-.16-1.44-.19-2A83.56,83.56,0,0,0,106.83,55a21.54,21.54,0,0,0-3.56-8.22c-1.78-2.29-4.46-2.46-6.26-.28a14,14,0,0,0-2.08,3.32A44.17,44.17,0,0,0,92,60.8L83.38,38.45s-1.21-1.92-2.92-1.21a2.31,2.31,0,0,0-1.21,2.69L91.34,67.45c-.12,1.91-.26,3.86-.41,6l-.07,0v4.22c.41.87,0,1.69-1,2.54a3.4,3.4,0,0,0-1.23,2.21c0,1.87,0,3.74.07,5.62l-1.65.69-33.15,12.7s-2.06,1.23-1.36,2.93S55.61,105.62,55.61,105.62Z"/></svg>