<svg id="icon" xmlns="http://www.w3.org/2000/svg" viewBox="0 0 200 200"><title>helicopter-anim_1</title><path d="M146.3,101.36,111.51,87.78c0-1.77-.07-3.54-.15-5.31a3.6,3.6,0,0,0-1.31-2.3c-.92-.76-1.28-1.49-1-2.28l.11-4.43,0,0c-.09-.9-.16-1.44-.19-2-.06-1.22-.13-2.45-.21-3.67L121,40.15s.5-2.21-1.21-2.92A2.31,2.31,0,0,0,117,38.28l-9,23A59.69,59.69,0,0,0,106.82,55a21.68,21.68,0,0,0-3.56-8.23c-1.78-2.29-4.46-2.46-6.26-.27a13.82,13.82,0,0,0-2.08,3.32,51,51,0,0,0-3.54,16.78c-.13,2.18-.29,4.35-.46,6.85l-.07,0v4.22a1.62,1.62,0,0,1-.16,1.65l-2.46-1L55.54,63.78s-2.21-.5-2.92,1.21a2.31,2.31,0,0,0,1.05,2.76L87.72,81l1.16.47a2.31,2.31,0,0,0-.25.9c0,3.61.15,7.23.21,10.84l.91,1.31,2.22.21.19-.16c.21.64.33,1.06.49,1.47s.41,1.1.61,1.66l-14,31.44s-.59,2.33,1.11,3,3.05-1.26,3.05-1.26l11.38-29.18c.3.73.62,1.44,1,2.13a7.77,7.77,0,0,1,1.16,3.5c.07,2.4.22,4.8.35,7.2.3,5.55.6,11.1.93,16.65.06,1-.31,1.37-1.28,1.35-1.41,0-2.83.06-4.24,0S91,133.3,91,134.51c0,2.13.13,2.4,1.63,2.45s3,0,4.52,0c1.1,0,1.5.44,1.52,1.51,0,2.22.14,4.43.26,6.64s.14,2.35,2.43,2.33c1.09,0,1.39.44,1.37,1.44,0,1.65-.06,3.3,0,4.94,0,.4.6.76.92,1.13.31-.38.88-.76.89-1.15q.09-7.37,0-14.72c0-.43-.61-.86-.94-1.28-.29.44-.82.88-.85,1.34-.11,1.7,0,3.4-.09,5.09,0,.39-.5.75-.77,1.12-.24-.36-.68-.72-.68-1.09,0-2,.13-4,.16-5.93,0-.94.39-1.38,1.36-1.37,1.6,0,3.2,0,4.81,0,1,0,1.52-.4,1.47-1.44,0-.52,0-1,0-1.56a1.24,1.24,0,0,0-1.41-1.38c-1.36,0-2.74-.07-4.1,0s-1.78-.28-1.7-1.66c.47-8.18.86-16.37,1.31-24.56a4.42,4.42,0,0,1,.46-2.18A23.69,23.69,0,0,0,106.86,96c.28-1.11.63-1.45,1.24-1.09l2.73-.27.48-1.47a4.86,4.86,0,0,1,0-1.08c0-.44.06-.87.09-1.31l.71.29,32.43,14.46s2.32.58,3-1.11S146.3,101.36,146.3,101.36Z"/></svg>