<?xml version="1.0" encoding="utf-8"?>
<!-- Generator: Adobe Illustrator 28.0.0, SVG Export Plug-In . SVG Version: 6.00 Build 0)  -->
<svg version="1.1" id="icon" xmlns="http://www.w3.org/2000/svg" xmlns:xlink="http://www.w3.org/1999/xlink" x="0px" y="0px"
	 viewBox="0 0 200 200" style="enable-background:new 0 0 200 200;" xml:space="preserve">
<path d="M143.7,117.6c0.1-1.3,0.1-2.4,0.2-3.6c0-0.4,0.1-0.9,0.2-1.2c0.2-0.3,0.6-0.7,0.9-0.8c0.5-0.1,0.9,0.2,1.1,0.7
	c0.2,0.7,0.3,1.3,0.4,2c0,2.6,0,5.2,0,7.9c0,2.2,0,4.3,0,6.5c0,1.2-0.5,1.6-1.7,1.2c-11.4-3.3-22.8-6.7-34.2-10c-0.1,0-0.1,0-0.2,0
	c-0.1,1.6,0,3.3-0.2,4.9c-0.2,1.7,0.4,2.8,1.6,4c5.2,5.5,10.2,11,15.3,16.5c0.8,0.9,1.2,1.8,1.1,2.9c0,0.6,0,1.2,0,1.7
	c0,1.2-0.7,1.9-1.9,1.8c-1-0.1-1.9-0.4-2.9-0.6c-4.5-1-8.9-1.9-13.4-2.9c-1-0.2-1.1-0.4-1.3-1.4c-0.2-1.3-0.5-2.6-0.8-3.8
	c0-0.2-0.3-0.4-0.5-0.4c-0.4-0.1-0.9-0.1-1.2-0.2c-0.6,2.4-1.1,4.7-1.7,7c-0.1,0.5-0.3,1.1-0.5,1.6c-0.3,0.8-0.8,1.1-1.6,1.1
	c-1.7,0-3.3,0-5,0c-1,0-1.5-0.4-1.8-1.3c-0.7-2.5-1.3-5-1.9-7.6c-0.1-0.3-0.1-0.6-0.2-0.8c-0.1,0-0.2,0-0.2,0c-1.4,0-1.4,0-1.6,1.4
	c-0.2,1.1-0.5,2.1-0.6,3.2c-0.1,0.7-0.5,1-1.1,1.2c-5.4,1.2-10.7,2.3-16.1,3.4c-1.5,0.3-2.4-0.3-2.3-1.9c0.1-0.9,0-1.9,0.1-2.8
	c0-0.4,0.2-0.9,0.5-1.2c4.2-4.5,8.4-9,12.6-13.6c1.5-1.6,3-3.3,4.5-5c0.1-0.2,0.3-0.4,0.3-0.6c0-2.2-0.1-4.4-0.2-6.5
	c0-0.1,0-0.2,0-0.3c-2,0.6-4,1.2-6,1.8c-9.4,2.8-18.8,5.5-28.3,8.3c-1.2,0.4-1.8,0-1.8-1.3c0-4.8,0-9.5,0-14.3
	c0-0.6,0.1-1.3,0.3-1.9c0.1-0.3,0.6-0.8,0.9-0.8c0.3,0,0.9,0.3,1,0.6c0.3,0.7,0.5,1.6,0.6,2.4c0.1,0.8,0,1.6,0,2.6
	c2-1.6,3.9-3,5.7-4.5c5.3-4.4,10.6-8.8,15.9-13.1c3.7-3,7.3-6.1,10.9-9.1c0.2-0.2,0.3-0.5,0.4-0.8c0.5-3.1,0.9-6.2,1.3-9.3
	c0.4-2.7,0.6-5.4,1-8.1c0.3-2.3,0.6-4.7,0.9-7c0.6-4.3,1.7-8.4,3.2-12.4c0.7-1.8,1.5-3.5,2.7-4.9c1-1.3,2.1-1.4,3.2-0.2
	c1.4,1.5,2.2,3.4,2.9,5.3c1.4,3.6,2.4,7.4,3,11.2c0.4,2.8,0.7,5.6,1.1,8.4c0.4,2.9,0.8,5.8,1.2,8.7c0.4,2.8,0.7,5.5,1.1,8.3
	c0,0.3,0.3,0.6,0.5,0.8c2.7,2.3,5.5,4.6,8.2,6.9c4.2,3.5,8.5,7.1,12.7,10.6c3.7,3,7.4,6,11.1,9C143.5,117.5,143.5,117.5,143.7,117.6
	z M105,73.5c-0.1-0.9-0.1-1.6-0.2-2.3c-0.2-1.5-0.6-2.9-1.3-4.3c-1.5-2.5-5.5-2.6-7,0.1c-0.9,1.7-1.4,3.5-1.4,5.3
	c0,2.5,0.1,5.1,0.3,7.6c0.1,1.6,0.5,3.2,1.5,4.6c1.5,2.1,4.4,2.3,6,0.3c0.4-0.5,0.7-1.1,1-1.7C105.1,79.9,104.8,76.5,105,73.5z"/>
</svg>
