<svg id="icon" xmlns="http://www.w3.org/2000/svg" viewBox="0 0 200 200"><path d="M142.9,133.29l-22-4.63-.13.18,1.81,1.73c3.1,3,6.21,6,9.29,9.09a2.06,2.06,0,0,1,.54,1.29c.06,2.12,0,4.23,0,6.41l-13.91-2.92c-1-.21-2-.39-3-.64-.6-.16-.9,0-1.18.58-.5,1-.87,2.34-1.71,2.85s-2.14.13-3.25.13c-1.49,0-3,0-4.46,0a1,1,0,0,1-1-.62c-.52-1.09-1.1-2.14-1.65-3.2-.09-.17-.17-.35-.27-.5-.48-.68-3.81-.48-4.2.25-.61,1.14-1.22,2.28-1.79,3.45a1,1,0,0,1-1,.62c-2.4,0-4.81,0-7.21,0a1,1,0,0,1-1-.63c-.35-.74-.82-1.44-1.11-2.2s-.78-.85-1.55-.68c-5.34,1.15-10.69,2.26-16,3.38l-.55.09c0-2.31,0-4.58,0-6.85,0-.31.34-.65.59-.9q5.33-5.22,10.66-10.4a1.84,1.84,0,0,1,.41-.24l-.15-.27-22,4.61c0-.36-.05-.65-.05-.95,0-2.56,0-5.12,0-7.68a2.54,2.54,0,0,1,.65-1.55q14.84-15.42,29.7-30.79A2.58,2.58,0,0,0,88.08,91a189.1,189.1,0,0,1,7.57-30.41,54.25,54.25,0,0,1,2.92-6.68c1-1.91,1.79-1.87,2.88,0a51,51,0,0,1,4.22,10.63A203.75,203.75,0,0,1,111.91,91a2.62,2.62,0,0,0,.66,1.29q14.81,15.38,29.66,30.7a2.25,2.25,0,0,1,.74,1.74c0,2.49,0,5,0,7.49C143,132.55,142.92,132.86,142.9,133.29Zm-33.25-12.9c-.34,0-.61,0-.89,0-1.29,0-1.27,0-1.39,1.22-.34,3.75-.71,7.5-1.06,11.24-.14,1.5-.26,3-.39,4.51h5.32C110.71,131.63,110.18,126,109.65,120.39Zm-19.31,0c-.53,5.65-1.06,11.26-1.58,16.89H94.1c-.49-5.12-1-10.16-1.44-15.19C92.48,120.2,92.47,120.21,90.34,120.42Z"/></svg>