<svg id="icon" xmlns="http://www.w3.org/2000/svg" viewBox="0 0 200 200"><title>para_motor</title><path d="M90,119.37c-3.69-3-10.42-3.75-15.53-1.72l-7.79,3.1c-1.21.48-1.21,1.59,0,2.07l7.79,3.09c5.11,2,11.84,1.29,15.53-1.71l.14-.11a2.75,2.75,0,0,0,0-4.61Z"/><circle cx="100" cy="120.73" r="5.27"/><path d="M125.53,117.65c-5.11-2-11.84-1.28-15.53,1.72l-.14.11a2.75,2.75,0,0,0,0,4.61l.14.11c3.69,3,10.42,3.74,15.53,1.71l7.79-3.09c1.21-.48,1.21-1.59,0-2.07Z"/><polygon points="83.18 78.26 64.12 88.05 54.31 111.44 78.1 104.42 83.18 78.26"/><polygon points="145.69 111.44 135.88 88.05 116.82 78.26 121.9 104.42 145.69 111.44"/><path d="M39.18,100.87C33.49,103.8,30,109.08,30,114.79v.1c0,1.82,2.09,3.11,4.09,2.51l11.33-3.34,8.77-20.9Z"/><path d="M160.82,100.87l-15-7.71,8.77,20.9,11.33,3.34c2,.6,4.09-.69,4.09-2.51v-.1C170,109.08,166.51,103.8,160.82,100.87Z"/><path d="M107,100l7,2.06-5.38-27.73a26.91,26.91,0,0,0-17.28,0L86,102.1,93,100A25,25,0,0,1,107,100Z"/><path d="M144.74,122.28a2.5,2.5,0,0,0-2.5,2.5v.47a9.75,9.75,0,0,1-9.73,9.73h-65a9.75,9.75,0,0,1-9.73-9.73v-.47a2.5,2.5,0,0,0-5,0v.47A14.75,14.75,0,0,0,67.49,140h65a14.75,14.75,0,0,0,14.73-14.73v-.47A2.5,2.5,0,0,0,144.74,122.28Z"/></svg>