<svg id="icon" xmlns="http://www.w3.org/2000/svg" viewBox="0 0 200 200"><title>parachute</title><path d="M97.26,42.11c-11,5.39-19.49,12.41-23.59,23.76-2.44,6.73-2.24,13.58-1.77,20.48l.67.09a12.43,12.43,0,0,0,.32-2c0-2.48-.14-5-.1-7.44C73,66.49,77.44,58,85.25,51.1a40.11,40.11,0,0,1,12.69-7.65,55.86,55.86,0,0,0-7.58,21.22c-1,7.57,0,14.94,1.29,22.52-7.89-6.18-12.42-5.41-17.54.33,8.06,18,16.19,36.11,24.51,54.65,0-.92.11-1.45.11-2a14.48,14.48,0,0,0-.09-1.61c-.63-6-1.24-12-1.9-17.94-.78-7.15-1.62-14.3-2.4-21.45-.31-2.89-.43-5.79-.82-8.67-.34-2.54-1-5.05-1.43-7.57a52.84,52.84,0,0,1,3-31.3,90.87,90.87,0,0,1,4.84-8.71,16.64,16.64,0,0,1,4.2,4.34,43.52,43.52,0,0,1,6.13,13.8c1.76,6.56,2.23,13.32,2.88,20.06S112,94.07,110.6,100.44q-4.25,20-8.48,40c-.15.7-.33,1.4-.57,2.42.53-.4.87-.53,1-.77q14.58-27.52,29.12-55c-5.12-6-9.79-5.94-17.36.25,0-1.41,0-2.53,0-3.65-.19-9.5-1.24-18.84-4.44-27.88A48.32,48.32,0,0,0,103,43.7,43,43,0,0,1,110,46.87,48.75,48.75,0,0,1,127,61.4a32.45,32.45,0,0,1,6.32,18.31,23.45,23.45,0,0,1-2.89,12.59c-7.78,14.15-15.2,28.5-22.74,42.78a5,5,0,0,0-.71,2.41l42.33-49.78c-3.76-6.13-9-6.38-14.86-.71,0-1.85,0-3.56,0-5.26.19-12.24-5.23-21.77-14.41-29.35-5.74-4.75-9.8-7-16.86-10C110.35,41.22,124.76,46,134,53.67c10.7,9,16.63,20.33,17.19,33.83l-46.9,55.11c.77.41,1.5.75,2.18,1.18,3.23,2,3,5.31,2.68,8.41a5.5,5.5,0,0,1-4.18,5.19,14,14,0,0,1-8.87-.22,4.73,4.73,0,0,1-3.22-4.76,29,29,0,0,0,0-3.23,5.39,5.39,0,0,1,3.09-5.85c-3-4.58-45.05-54.24-47-55.35a35.83,35.83,0,0,1,3.54-16.75c7-15.16,19-24.1,35-28A27.39,27.39,0,0,1,97.26,42.11Zm-46.38,45c3.8,4.88,43.6,52.84,45.95,54.16-1.29-2.85-2.52-5.58-3.74-8.32q-5-11.21-10-22.41-4.69-10.45-9.43-20.88a6,6,0,0,0-1.28-2.21,28.7,28.7,0,0,0-4.23-2.8,13.7,13.7,0,0,0-4.11-1.75A14.35,14.35,0,0,0,50.88,87.09Zm49.41,55.6L112.1,87.44c-5.4-6.34-13-5.93-17.63-.15C96.39,105.51,98.3,123.72,100.29,142.69Z"/></svg>