<svg id="icon" xmlns="http://www.w3.org/2000/svg" viewBox="0 0 200 200"><title>para_glider</title><polygon points="64.12 88.32 54.31 111.71 78.1 104.69 83.18 78.52 64.12 88.32"/><polygon points="116.82 78.52 121.9 104.69 145.69 111.71 135.88 88.32 116.82 78.52"/><path d="M30,115.05v.11c0,1.82,2.09,3.1,4.09,2.51l11.33-3.34,8.77-20.91-15,7.72C33.49,104.07,30,109.35,30,115.05Z"/><path d="M160.82,101.14l-15-7.72,8.77,20.91,11.33,3.34c2,.59,4.09-.69,4.09-2.51v-.11C170,109.35,166.51,104.07,160.82,101.14Z"/><path d="M107,100.31l7,2-5.38-27.73a27,27,0,0,0-17.28,0L86,102.36l7-2A25,25,0,0,1,107,100.31Z"/><path d="M117.32,116.26H82.68c-2.42,0-4.39,2.36-4.39,5.26s2,5.27,4.39,5.27h34.64c2.42,0,4.39-2.36,4.39-5.27S119.74,116.26,117.32,116.26Z"/></svg>