<svg id="icon" xmlns="http://www.w3.org/2000/svg" viewBox="0 0 200 200"><title>pav</title><path d="M66.27,137.94a16.56,16.56,0,1,0,23.13,4.47A16.54,16.54,0,0,0,66.27,137.94Zm18.35,26.38a15.57,15.57,0,1,1,3.74-21.66A15.56,15.56,0,0,1,84.62,164.32Z"/><path d="M76.47,151.54a.84.84,0,0,0-.11-.41c.85-.87,1.88-3.14,2.62-5.91,1-3.7,1.08-6.89.2-7.13s-2.41,2.57-3.4,6.27c-.74,2.77-1,5.25-.68,6.43a1,1,0,0,0-.17.13,1.09,1.09,0,0,0-.13.17c-1.17-.3-3.65-.07-6.42.67-3.7,1-6.51,2.52-6.27,3.4s3.43.8,7.13-.19c2.77-.74,5-1.78,5.9-2.63a.88.88,0,0,0,.42.11c.32,1.17,1.77,3.21,3.8,5.24,2.71,2.71,5.43,4.38,6.08,3.73s-1-3.37-3.74-6.08C79.67,153.31,77.64,151.86,76.47,151.54Z"/><path d="M121.59,135.31a16.56,16.56,0,1,0,19.29,13.52A16.54,16.54,0,0,0,121.59,135.31Zm6,31.57a15.57,15.57,0,1,1,12.25-18.25A15.58,15.58,0,0,1,127.58,166.88Z"/><path d="M127.65,145.05c-1.8,2.23-3,4.39-3.24,5.59a.8.8,0,0,0-.21.05,1,1,0,0,0-.18.1,15.7,15.7,0,0,0-6.14-2c-3.79-.61-7-.37-7.12.54s2.81,2.13,6.59,2.73a15.82,15.82,0,0,0,6.46,0,1,1,0,0,0,.33.27,15.81,15.81,0,0,0,1.34,6.32c1.37,3.58,3.17,6.22,4,5.89s.44-3.49-.92-7.07c-1-2.68-2.29-4.83-3.23-5.61a.85.85,0,0,0,.07-.42,15.57,15.57,0,0,0,4.81-4.32c2.41-3,3.8-5.85,3.08-6.43S130.07,142.08,127.65,145.05Z"/><path d="M84.52,141.08l-3.46,3.17c-.1.47-.22.95-.35,1.44a23.43,23.43,0,0,1-1.89,5c.22.13.46.29.69.45l7.66-7-.28-.42A14.41,14.41,0,0,0,84.52,141.08Z"/><path d="M118.16,147a23.29,23.29,0,0,1,5.17,1.37c0-.08.08-.17.12-.25L115.69,141a13.57,13.57,0,0,0-2.49,2.74c-.07.09-.13.19-.19.28l3,2.72C116.69,146.81,117.42,146.9,118.16,147Z"/><path d="M167.68,75.86A16.56,16.56,0,1,0,175.35,98,16.56,16.56,0,0,0,167.68,75.86Zm6.76,21.78a15.58,15.58,0,1,1-7.49-21A15.56,15.56,0,0,1,174.44,97.64Z"/><path d="M161.32,90.81a.88.88,0,0,0-.11-.42c.85-.86,1.89-3.13,2.63-5.9,1-3.71,1.08-6.9.2-7.14s-2.41,2.58-3.4,6.28c-.74,2.77-1,5.26-.68,6.43a1,1,0,0,0-.3.3c-1.17-.3-3.66-.06-6.42.68-3.71,1-6.51,2.51-6.28,3.4s3.43.8,7.13-.2c2.77-.74,5-1.77,5.91-2.62l.19.08a.76.76,0,0,0,.21,0c.33,1.17,1.78,3.2,3.8,5.22,2.71,2.71,5.43,4.38,6.08,3.74s-1-3.37-3.73-6.08C164.52,92.58,162.49,91.14,161.32,90.81Z"/><path d="M123.34,59.1a16.56,16.56,0,1,0,2.07-23.47A16.54,16.54,0,0,0,123.34,59.1Zm2.42-22.46a15.58,15.58,0,1,1-1.56,22A15.55,15.55,0,0,1,125.76,36.64Z"/><path d="M128.76,49c2.82.45,5.31.43,6.45,0a1.14,1.14,0,0,0,.15.16l.18.11a15.78,15.78,0,0,0,1.34,6.32c1.37,3.58,3.17,6.21,4,5.89s.44-3.5-.92-7.08c-1-2.67-2.29-4.82-3.22-5.6a1,1,0,0,0,.07-.42c1.12-.44,3-2.09,4.81-4.32,2.41-3,3.8-5.85,3.09-6.43S141.48,39,139.06,42a15.67,15.67,0,0,0-3.24,5.59.87.87,0,0,0-.4.16c-.95-.76-3.31-1.55-6.14-2-3.78-.6-7-.36-7.11.54S125,48.37,128.76,49Z"/><path d="M152.77,89.31a23.58,23.58,0,0,1,5.28-.86c0-.26,0-.54,0-.83l-9.92-3.11c-.08.15-.16.3-.23.45a14.75,14.75,0,0,0-1.07,3.36l4.48,1.41Q152,89.51,152.77,89.31Z"/><path d="M129.26,82.78l13.24,4.16a19,19,0,0,1,1.27-3.82l-12.38-3.89,2.8-12.58a18.5,18.5,0,0,1-3.95-.82l-3,13.47L99.89,95.09l-27.2-15.7-3-13.55a19.25,19.25,0,0,1-4,.82l2.83,12.66-12.3,3.87A17.64,17.64,0,0,1,57.51,87l13.16-4.13L98.12,98.73v29.86L87.9,138a19.75,19.75,0,0,1,2.68,3l9.56-8.77,9.49,8.71a18.61,18.61,0,0,1,2.68-3l-10.16-9.33V98.44Z"/><path d="M133.81,51.06h-.28l-2.29,10.29a13.69,13.69,0,0,0,3.61.79l.34,0,.87-3.93c-.3-.64-.59-1.32-.85-2A23.7,23.7,0,0,1,133.81,51.06Z"/><path d="M65.08,64.92a16.56,16.56,0,1,0-17.6-15.34A16.53,16.53,0,0,0,65.08,64.92ZM63,32.84a15.58,15.58,0,1,1-14.46,17A15.55,15.55,0,0,1,63,32.84Z"/><path d="M57.73,51.79c2.77-.74,5-1.78,5.91-2.63a.81.81,0,0,0,.41.11c.33,1.17,1.77,3.2,3.8,5.23,2.71,2.71,5.43,4.38,6.08,3.73s-1-3.37-3.73-6.08c-2-2-4.06-3.47-5.23-3.8a.76.76,0,0,0,0-.21.46.46,0,0,0-.08-.19c.85-.87,1.89-3.14,2.63-5.91,1-3.7,1.08-6.89.19-7.13s-2.4,2.57-3.4,6.28a15.75,15.75,0,0,0-.68,6.42,1.07,1.07,0,0,0-.3.3c-1.17-.3-3.66-.06-6.43.68-3.7,1-6.51,2.51-6.27,3.4S54,52.78,57.73,51.79Z"/><path d="M55.13,96.36a16.56,16.56,0,1,0-21.35,9.94A16.55,16.55,0,0,0,55.13,96.36Zm-20.65,9.13a15.58,15.58,0,1,1,19.78-9.63A15.55,15.55,0,0,1,34.48,105.49Z"/><path d="M40.45,91.13l.06-.2a.81.81,0,0,0,0-.22,15.64,15.64,0,0,0,4.81-4.31c2.41-3,3.8-5.86,3.09-6.43s-3.25,1.36-5.67,4.34a15.73,15.73,0,0,0-3.24,5.58.87.87,0,0,0-.4.16c-1-.76-3.31-1.56-6.15-2-3.78-.61-7-.37-7.11.54s2.81,2.13,6.59,2.73a15.47,15.47,0,0,0,6.47,0,.79.79,0,0,0,.33.27c-.18,1.2.31,3.65,1.34,6.32,1.36,3.58,3.16,6.22,4,5.89s.44-3.49-.93-7.07C42.64,94.06,41.38,91.91,40.45,91.13Z"/><path d="M66.58,55.76a23.43,23.43,0,0,1-3.38-4.14c-.23.13-.48.25-.74.38l2.26,10.15.51,0a13.72,13.72,0,0,0,3.44-.75l-1-4.58C67.3,56.46,66.94,56.12,66.58,55.76Z"/><path d="M51.87,84.56,48,85.77c-.41.58-.85,1.17-1.32,1.76a24.07,24.07,0,0,1-3.77,3.79l.15.23,10-3.16A13.68,13.68,0,0,0,52,84.86Z"/><path d="M46.64,73.36a58.51,58.51,0,0,1,5.72-10.2A18.92,18.92,0,0,1,50.06,61a61.58,61.58,0,0,0-6.43,11.43A19.89,19.89,0,0,1,46,73.1Z"/><path d="M148.07,62.78l-.31.25a58.58,58.58,0,0,1,5.78,10.25,18.75,18.75,0,0,1,3-.91,61.49,61.49,0,0,0-6.5-11.52A19.11,19.11,0,0,1,148.07,62.78Z"/><path d="M106,154.55q-2.91.28-5.88.29c-2,0-4-.1-5.92-.29a19,19,0,0,1-.76,3.06,61.45,61.45,0,0,0,6.68.37,62.8,62.8,0,0,0,6.62-.36,19.27,19.27,0,0,1-.69-2.74C106,154.77,106,154.66,106,154.55Z"/><path d="M100.11,38.27a57.88,57.88,0,0,1,18.46,3A18.77,18.77,0,0,1,120,38.45a61.41,61.41,0,0,0-40,.06,19.64,19.64,0,0,1,1.43,2.82A58.23,58.23,0,0,1,100.11,38.27Z"/><path d="M139.17,139.77a19.18,19.18,0,0,1,1.78,2.62,61.52,61.52,0,0,0,19.19-32.82,18.47,18.47,0,0,1-3.14-.32A58.26,58.26,0,0,1,139.17,139.77Z"/><path d="M61,139.75a58.28,58.28,0,0,1-17.8-30.53,18.39,18.39,0,0,1-3.14.34,61.53,61.53,0,0,0,19.17,32.81A18.25,18.25,0,0,1,61,139.75Z"/><path d="M91.75,65.9A21.57,21.57,0,0,0,91.14,71c0,7.73,4,14,8.86,14s8.86-6.29,8.86-14a21.57,21.57,0,0,0-.61-5.12,12.56,12.56,0,0,0-16.5,0Z"/><path d="M116,85.43c0-.33,0-.66,0-1a25.89,25.89,0,0,0-4.57-15.12q.06.85.06,1.71a21.06,21.06,0,0,1-3.2,11.57c-2.17,3.28-5.12,5.08-8.29,5.08s-6.12-1.8-8.29-5.08A21.06,21.06,0,0,1,88.51,71q0-.85.06-1.71A25.89,25.89,0,0,0,84,84.43c0,.34,0,.67,0,1h0s0,15.22,9.36,34.35c0,0,.71,2.19,6.64,2.19s6.64-2.19,6.64-2.19C116,100.65,116,85.43,116,85.43Z"/></svg>