<?xml version="1.0" encoding="UTF-8"?>
<svg id="Calque_1" data-name="Calque 1" xmlns="http://www.w3.org/2000/svg" viewBox="0 0 1050 783">
  <defs>
    <style>
      .cls-1 {
        fill: #fefefe;
      }

      .cls-2 {
        fill: #000000;
      }
    </style>
  </defs>
  <path class="cls-2" d="M433.57,375.28L5.52,344.85c.14-22.26,3.06-43.63,7.94-64.92l7.64-33.34c2.34-7.07,7.94-11.23,15.31-11.82l69.49-5.58,353.21-25.81c3.99-46.03,10.85-91.18,21.74-135.82,1.23-5.05,3.15-9.32,6.32-12.94,6.08-3.7,12.85-4.65,20.33-5.01.91-3.11,1.1-6.29,1.03-9.84-14.58,2.04-28,2.13-42.23,1.34-16.5-.92-32.37-1.44-48.77-4.81.74-2.68,3.08-2.85,5.25-3.09,29.18-3.23,57.96-3.48,87.72-1.18,2.42-9.45,9.57-25.9,14.32-25.92s12.65,16.08,14.5,25.94c26.06-2.53,51.32-1.74,77.17.42,4.66.39,9.23-.57,13.78,2.96-11.93,3.88-23.77,4.01-35.98,4.96-17.85,1.39-35.01,1.68-52.97-.61l1.12,10.17,13.02,1.66c6.15.78,9.57,5.67,11.57,11.64,7.55,23.8,12.97,47.65,16.12,72.67l8.5,67.46,304.4,22.22,46.32,3.45c25.43,1.9,50.26,2.82,75.56,6.26,11.36,1.54,15.57,22.17,17.97,34.97,4.56,24.23,7.19,48.26,8.57,73l-50.19,4.27-102.09,7.35-207.71,15.5-68.49,4.86c-7.03,4.96-13.08,11.07-17.43,18.83l-17.93,31.97-28.66,115.28c-7.62,30.65-12.93,60.78-15.61,92.46l65.84,8.32,68.9,9.78c4.86,1.6,8.2,5.22,10.19,9.96,5.51,13.09,7.81,26.87,9.72,41.04.63,4.65,1.91,8.86,1.08,14.19l-147.67,13.89-11.93-31.71-4.49,56.35-1.72,16.37c-.12,1.18-1.86,1.19-1.84-.15-3.47-24.63-4.63-48.31-6.28-73.48l-12.29,33.04-63.66-6.47-84.46-7.96c.45-19.76,4.57-38.95,11.4-57.17,1.62-4.33,5.09-6.97,9.4-7.97l72.65-10.33,62.42-8.02c-2.27-25.11-6.13-49.42-11.8-74.16l-16.41-71.6-16.01-60.06-13.75-26.23c-5.37-10.25-11.97-18.61-22.09-26.17ZM460.33,337.23l2.9,15.63c3.13,16.86,25.88,16.93,41.11,18.71s29.7,1.66,45.05.05c10.68-1.12,22.07-.69,31.48-6.53,6.62-4.1,10.36-13.61,11.04-21.61,2.93-34.54,2.64-68.52-.18-103.03-.72-8.84-3.06-17.77-8.59-24.55-4.36-5.36-11.73-8.09-18.63-9.45-26.29-5.16-53.17-5.38-79.18.11-10.43,2.2-17.78,8.91-20.4,18.81-2.59,9.8-4.1,19.11-4.52,29.45-1.12,27.51-1.44,54.29-.09,82.42ZM557.01,423.79c-.54,3.43,2,6.67,5.5,6.58,8.77-.22,15.42-6.52,17.59-14.89,3.68-14.18,7.05-27.88,8.31-42.99-6.77,5.2-13.18,8.92-20.84,11.59-3.28,1.15-4.63,5.18-5.6,8.3l-4.96,31.41ZM465.46,373.09c.71,16.04,4.16,30.45,8.75,44.67,2.41,7.44,7.99,12.92,16.16,12.91,2.23,0,6.68-2.58,6.34-5.14l-4.54-33.5c-.78-3.42-2.33-6.25-5.42-7.73-7.79-2.03-13.38-6.65-21.29-11.21Z"/>
  <path class="cls-1" d="M460.33,337.23c-1.35-28.13-1.03-54.91.09-82.42.42-10.34,1.92-19.65,4.52-29.45,2.62-9.9,9.97-16.61,20.4-18.81,26.01-5.49,52.89-5.27,79.18-.11,6.9,1.36,14.27,4.09,18.63,9.45,5.53,6.79,7.87,15.71,8.59,24.55,2.82,34.51,3.11,68.49.18,103.03-.68,8-4.42,17.51-11.04,21.61-9.41,5.83-20.8,5.41-31.48,6.53-15.34,1.61-29.83,1.73-45.05-.05s-37.97-1.85-41.11-18.71l-2.9-15.63Z"/>
  <path class="cls-1" d="M465.46,373.09c7.91,4.56,13.5,9.17,21.29,11.21,3.09,1.48,4.64,4.31,5.42,7.73l4.54,33.5c.35,2.57-4.11,5.14-6.34,5.14-8.18.02-13.75-5.46-16.16-12.91-4.6-14.22-8.05-28.64-8.75-44.67Z"/>
  <path class="cls-1" d="M557.01,423.79l4.96-31.41c.97-3.12,2.31-7.15,5.6-8.3,7.67-2.67,14.07-6.39,20.84-11.59-1.26,15.12-4.64,28.81-8.31,42.99-2.17,8.37-8.82,14.67-17.59,14.89-3.51.09-6.04-3.16-5.5-6.58Z"/>
</svg>